<?xml version="1.0" encoding="utf-8"?>
<!-- Generator: Adobe Illustrator 18.0.0, SVG Export Plug-In . SVG Version: 6.00 Build 0)  -->
<!DOCTYPE svg PUBLIC "-//W3C//DTD SVG 1.1//EN" "http://www.w3.org/Graphics/SVG/1.1/DTD/svg11.dtd">
<svg version="1.1" id="Layer_1" xmlns="http://www.w3.org/2000/svg" xmlns:xlink="http://www.w3.org/1999/xlink" x="0px" y="0px"
	 width="24px" height="48px" viewBox="0 0 24 48" enable-background="new 0 0 24 48" xml:space="preserve">
<path fill="#EFEFEF" d="M3,24h18c1.7,0,3,1.3,3,3v18c0,1.7-1.3,3-3,3H3c-1.7,0-3-1.3-3-3V27C0,25.3,1.3,24,3,24z"/>
<title>BFxOS</title>
<g>
	
		<radialGradient id="right_3_" cx="6.6007" cy="115.7218" r="19.3067" gradientTransform="matrix(1 0 0 1 0 -70)" gradientUnits="userSpaceOnUse">
		<stop  offset="0" style="stop-color:#00BC85"/>
		<stop  offset="1" style="stop-color:#149D91"/>
	</radialGradient>
	<polygon id="right_1_" fill="url(#right_3_)" points="5.5,43.7 5.5,40.3 8.8,38.8 12,40.4 	"/>
	<g>
		
			<linearGradient id="bottom_2_" gradientUnits="userSpaceOnUse" x1="62" y1="16.0506" x2="62" y2="-5.6412" gradientTransform="matrix(1 0 0 -1 -50 41)">
			<stop  offset="0" style="stop-color:#002E3B"/>
			<stop  offset="1" style="stop-color:#002639"/>
		</linearGradient>
		<polygon id="bottom" fill="url(#bottom_2_)" points="12,43.6 8.9,42 8.9,42 8.9,42 5.5,43.7 12,46.8 18.5,43.7 15.1,42 		"/>
		
			<radialGradient id="right-2_2_" cx="63.0589" cy="17.0967" r="23.326" gradientTransform="matrix(1 0 0 -1 -50 41)" gradientUnits="userSpaceOnUse">
			<stop  offset="0" style="stop-color:#00BC85"/>
			<stop  offset="1" style="stop-color:#149D91"/>
		</radialGradient>
		<polygon id="right-2" fill="url(#right-2_2_)" points="15.6,30.2 15.6,35.4 15.6,35.4 15.6,35.4 12,37.1 15.2,38.8 18.5,37.2 
			18.5,28.3 		"/>
		
			<radialGradient id="left_3_" cx="57.0182" cy="18.8056" r="44.5856" gradientTransform="matrix(1 0 0 -1 -50 41)" gradientUnits="userSpaceOnUse">
			<stop  offset="0" style="stop-color:#004473"/>
			<stop  offset="1" style="stop-color:#00345F"/>
		</radialGradient>
		<polygon id="left_1_" fill="url(#left_3_)" points="18.5,43.7 18.5,43.7 18.5,40.3 8.5,35.4 8.5,30.2 5.5,28.3 5.5,37.2 		"/>
		
			<linearGradient id="top_2_" gradientUnits="userSpaceOnUse" x1="62" y1="15.94" x2="62" y2="-5.6421" gradientTransform="matrix(1 0 0 -1 -50 41)">
			<stop  offset="0" style="stop-color:#002E3B"/>
			<stop  offset="1" style="stop-color:#002639"/>
		</linearGradient>
		<polygon id="top" fill="url(#top_2_)" points="8.4,30.2 8.4,30.2 12,28.4 15.6,30.2 18.5,28.3 12,25.2 5.5,28.3 5.5,28.3 		"/>
	</g>
</g>
<polygon id="right_2_" fill="#BBBBBB" points="5.5,19.7 5.5,16.3 8.8,14.8 12,16.4 "/>
<polygon id="bottom_1_" fill="#3D3D3D" points="12,19.6 8.9,18 8.9,18 8.9,18 5.5,19.7 12,22.8 18.5,19.7 15.1,18 "/>
<polygon id="right-2_1_" fill="#BBBBBB" points="15.6,6.2 15.6,11.4 15.6,11.4 15.6,11.4 12,13.1 15.2,14.8 18.5,13.2 18.5,4.3 "/>
<polygon id="left_2_" fill="#828282" points="18.5,19.7 18.5,19.7 18.5,16.3 8.5,11.4 8.5,6.2 5.5,4.3 5.5,13.2 "/>
<polygon id="top_1_" fill="#3D3D3D" points="8.4,6.2 8.4,6.2 12,4.4 15.6,6.2 18.5,4.3 12,1.2 5.5,4.3 5.5,4.3 "/>
</svg>
